<svg width="29" height="28" viewBox="0 0 29 28" fill="none" xmlns="http://www.w3.org/2000/svg">
<path d="M5.99121 7.32187H24.3388C24.7106 7.32188 25.0782 7.3998 25.418 7.55059C25.7578 7.70138 26.0623 7.9217 26.3117 8.19736C26.5612 8.47301 26.7501 8.79787 26.8663 9.15101C26.9826 9.50415 27.0235 9.87772 26.9865 10.2476L26.1882 18.2306C26.1225 18.8873 25.8153 19.496 25.326 19.9388C24.8367 20.3816 24.2004 20.6268 23.5405 20.6269H10.8342C10.2188 20.6271 9.62238 20.4141 9.14642 20.024C8.67045 19.6339 8.34441 19.0909 8.22379 18.4874L5.99121 7.32187Z" stroke="white" stroke-width="2.661" stroke-linejoin="round"/>
<path d="M5.9915 7.322L4.9138 3.00719C4.84172 2.71947 4.67557 2.46409 4.44174 2.28161C4.20792 2.09913 3.91982 2.00001 3.62321 2H2M9.983 25.949H12.644M20.627 25.949H23.288" stroke="white" stroke-width="2.661" stroke-linecap="round" stroke-linejoin="round"/>
</svg>
