<svg width="25" height="25" viewBox="0 0 25 25" fill="none" xmlns="http://www.w3.org/2000/svg">
<circle cx="12.5" cy="12.5" r="12.5" fill="#111111"/>
<path d="M8.3537 16.6463C8.19648 16.489 8.10815 16.2757 8.10815 16.0534C8.10815 15.831 8.19648 15.6177 8.3537 15.4604L11.3192 12.4949L8.3537 9.52936C8.20093 9.37119 8.1164 9.15934 8.11831 8.93944C8.12022 8.71955 8.20843 8.5092 8.36392 8.3537C8.51942 8.19821 8.72977 8.11 8.94966 8.10809C9.16956 8.10618 9.38141 8.19072 9.53958 8.34349L12.5051 11.309L15.4706 8.34349C15.6288 8.19072 15.8407 8.10618 16.0606 8.10809C16.2805 8.11 16.4908 8.19821 16.6463 8.3537C16.8018 8.5092 16.89 8.71955 16.8919 8.93944C16.8938 9.15934 16.8093 9.37119 16.6565 9.52936L13.691 12.4949L16.6565 15.4604C16.8093 15.6186 16.8938 15.8304 16.8919 16.0503C16.89 16.2702 16.8018 16.4806 16.6463 16.6361C16.4908 16.7916 16.2805 16.8798 16.0606 16.8817C15.8407 16.8836 15.6288 16.7991 15.4706 16.6463L12.5051 13.6808L9.53958 16.6463C9.38231 16.8035 9.16903 16.8918 8.94664 16.8918C8.72426 16.8918 8.51098 16.8035 8.3537 16.6463Z" fill="white"/>
</svg>
