<svg width="20" height="20" viewBox="0 0 20 20" fill="none" xmlns="http://www.w3.org/2000/svg">
<circle cx="10" cy="10" r="9.5" stroke="#B40F23"/>
<path d="M6.68301 13.317C6.55723 13.1912 6.48657 13.0206 6.48657 12.8427C6.48657 12.6648 6.55723 12.4942 6.68301 12.3683L9.05544 9.99592L6.68301 7.6235C6.5608 7.49696 6.49317 7.32748 6.4947 7.15157C6.49623 6.97565 6.56679 6.80737 6.69119 6.68297C6.81558 6.55858 6.98386 6.48802 7.15978 6.48649C7.33569 6.48496 7.50517 6.55258 7.63171 6.6748L10.0041 9.04722L12.3766 6.6748C12.5031 6.55258 12.6726 6.48496 12.8485 6.48649C13.0244 6.48802 13.1927 6.55858 13.3171 6.68297C13.4415 6.80737 13.512 6.97565 13.5136 7.15157C13.5151 7.32748 13.4475 7.49696 13.3253 7.6235L10.9528 9.99592L13.3253 12.3683C13.4475 12.4949 13.5151 12.6644 13.5136 12.8403C13.512 13.0162 13.4415 13.1845 13.3171 13.3089C13.1927 13.4333 13.0244 13.5038 12.8485 13.5054C12.6726 13.5069 12.5031 13.4393 12.3766 13.317L10.0041 10.9446L7.63171 13.317C7.50589 13.4428 7.33527 13.5135 7.15736 13.5135C6.97946 13.5135 6.80883 13.4428 6.68301 13.317Z" fill="#B40F23"/>
</svg>
