<svg width="8" height="8" viewBox="0 0 8 8" fill="none" xmlns="http://www.w3.org/2000/svg">
<path d="M0.683013 7.31705C0.557232 7.19123 0.486572 7.02061 0.486572 6.8427C0.486572 6.66479 0.557232 6.49417 0.683013 6.36835L3.05544 3.99592L0.683013 1.6235C0.560797 1.49696 0.49317 1.32748 0.494699 1.15157C0.496228 0.975649 0.566789 0.80737 0.691186 0.682973C0.815582 0.558577 0.983861 0.488015 1.15978 0.486487C1.33569 0.484958 1.50517 0.552585 1.63171 0.674801L4.00414 3.04722L6.37656 0.674801C6.5031 0.552585 6.67258 0.484958 6.8485 0.486487C7.02441 0.488015 7.19269 0.558577 7.31709 0.682973C7.44148 0.80737 7.51205 0.975649 7.51357 1.15157C7.5151 1.32748 7.44748 1.49696 7.32526 1.6235L4.95284 3.99592L7.32526 6.36835C7.44748 6.49489 7.5151 6.66437 7.51357 6.84028C7.51205 7.0162 7.44148 7.18448 7.31709 7.30888C7.19269 7.43327 7.02441 7.50383 6.8485 7.50536C6.67258 7.50689 6.5031 7.43926 6.37656 7.31705L4.00414 4.94463L1.63171 7.31705C1.50589 7.44283 1.33527 7.51349 1.15736 7.51349C0.979455 7.51349 0.808831 7.44283 0.683013 7.31705Z" fill="#B40F23"/>
</svg>
