<svg width="9" height="9" viewBox="0 0 9 9" fill="none" xmlns="http://www.w3.org/2000/svg">
<path d="M0.353705 8.6463C0.196479 8.48902 0.108154 8.27574 0.108154 8.05336C0.108154 7.83097 0.196479 7.61769 0.353705 7.46042L3.31923 4.49489L0.353705 1.52936C0.200935 1.37119 0.116402 1.15934 0.118313 0.939442C0.120223 0.719546 0.208425 0.509197 0.363921 0.353702C0.519417 0.198206 0.729765 0.110004 0.949661 0.108093C1.16956 0.106183 1.38141 0.190716 1.53958 0.343486L4.50511 3.30901L7.47064 0.343486C7.62881 0.190716 7.84066 0.106183 8.06056 0.108093C8.28045 0.110004 8.4908 0.198206 8.6463 0.353702C8.80179 0.509197 8.89 0.719546 8.89191 0.939442C8.89382 1.15934 8.80928 1.37119 8.65651 1.52936L5.69099 4.49489L8.65651 7.46042C8.80928 7.61859 8.89382 7.83044 8.89191 8.05034C8.89 8.27023 8.80179 8.48058 8.6463 8.63608C8.4908 8.79157 8.28045 8.87978 8.06056 8.88169C7.84066 8.8836 7.62881 8.79907 7.47064 8.6463L4.50511 5.68077L1.53958 8.6463C1.38231 8.80352 1.16903 8.89185 0.946643 8.89185C0.724258 8.89185 0.510978 8.80352 0.353705 8.6463Z" fill="white"/>
</svg>
