<svg width="36" height="36" viewBox="0 0 36 36" fill="none" xmlns="http://www.w3.org/2000/svg">
<rect width="36" height="36" rx="18" fill="#FE9E1A"/>
<path d="M15.4812 11.4001H19.0525C19.7064 11.4001 20.2365 10.8699 20.2365 10.2159V10.2121C20.2365 9.55824 19.7064 9.02808 19.0525 9.02808H15.4812C14.8272 9.02808 14.2971 9.55824 14.2971 10.2121V10.2159C14.2971 10.8699 14.8272 11.4001 15.4812 11.4001Z" fill="white"/>
<path d="M14.3357 22.0835H16.3418C16.4634 21.2207 16.7672 20.4166 17.2135 19.7115H14.3357C14.0079 19.7115 13.7421 19.4416 13.7421 19.1138C13.7421 18.7859 14.0079 18.516 14.3357 18.516H18.2062C19.2831 17.514 20.7265 16.9009 22.3134 16.9009C23.0441 16.9009 23.7443 17.0308 24.3924 17.2688V12.0164C24.3924 11.0329 23.63 10.2046 22.6464 10.2046H21.4322V10.2387C21.4322 11.5462 20.3955 12.5766 19.0879 12.5766H15.5198C14.2122 12.5766 13.1208 11.5463 13.1208 10.2387V10.2046H11.9612C10.9777 10.2046 10.1416 11.0328 10.1416 12.0164V23.8888C10.1416 24.8724 10.9777 25.6319 11.9612 25.6319H16.9191C16.5579 24.9117 16.3366 24.1093 16.2911 23.26H14.3357C14.0079 23.26 13.7421 22.9996 13.7421 22.6717C13.7421 22.3439 14.0079 22.0835 14.3357 22.0835ZM14.3357 14.9486H20.2719C20.5998 14.9486 20.8655 15.2184 20.8655 15.5463C20.8655 15.8742 20.5998 16.1441 20.2719 16.1441H14.3357C14.0079 16.1441 13.7421 15.8741 13.7421 15.5463C13.7421 15.2184 14.0079 14.9486 14.3357 14.9486Z" fill="white"/>
<path d="M22.2775 18.1296C19.645 18.1296 17.511 20.2637 17.511 22.8962C17.511 25.5286 19.645 27.6627 22.2775 27.6627C24.91 27.6627 27.044 25.5286 27.044 22.8962C27.044 20.2637 24.91 18.1296 22.2775 18.1296ZM24.1745 24.7919C23.9418 25.0245 23.5635 25.0235 23.3336 24.7936L21.8764 23.3364C21.8298 23.2937 21.7899 23.2438 21.7586 23.1884C21.7073 23.0979 21.6815 22.9968 21.6817 22.8955V22.8944V19.9188C21.6817 19.5888 21.9462 19.3213 22.2776 19.3213C22.6066 19.3213 22.8733 19.5885 22.8733 19.9188V22.6481L24.1762 23.9509C24.4079 24.1827 24.4088 24.5576 24.1745 24.7919Z" fill="white"/>
</svg>
