<svg width="21" height="17" viewBox="0 0 21 17" fill="none" xmlns="http://www.w3.org/2000/svg">
<path d="M1.2 0C0.53726 0 0 0.537258 0 1.2V11.0175C0 11.6802 0.537258 12.2175 1.2 12.2175H10.507C10.2907 11.5604 10.1807 10.873 10.1813 10.1813H4.0725C4.0725 9.6412 3.85797 9.12328 3.4761 8.74141C3.09423 8.35953 2.5763 8.145 2.03625 8.145V4.0725C3.16637 4.0725 4.0725 3.16637 4.0725 2.03625H14.2538C14.2538 2.5763 14.4683 3.09422 14.8502 3.4761C15.232 3.85797 15.75 4.0725 16.29 4.0725V4.13359C16.9721 4.13359 17.6543 4.25576 18.3263 4.47975V1.2C18.3263 0.537258 17.789 0 17.1263 0H1.2ZM9.16313 3.05438C7.43231 3.08492 6.10875 4.37794 6.10875 6.10875C6.10875 7.83956 7.43231 9.10204 9.16313 9.16313C9.55001 9.16313 9.94708 9.08168 10.3238 8.92896C10.5987 7.80902 11.0568 6.75017 12.187 5.71168C12.0648 4.35757 10.7819 3.02383 9.16313 3.05438ZM16.29 5.09063L18.5808 7.38141L16.29 9.67219V8.145C14.4065 8.145 13.1745 10.1405 14.0094 11.8306L12.8996 12.9404C11.1077 10.2322 13.0422 6.61781 16.29 6.61781V5.09063ZM16.29 16.29L13.9992 13.9992L16.29 11.7084V13.2356C18.1735 13.2356 19.4055 11.2401 18.5706 9.55001L19.6804 8.44026C21.4723 11.1485 19.5378 14.7628 16.29 14.7628V16.29Z" fill="white"/>
</svg>
