<svg width="16" height="17" viewBox="0 0 16 17" fill="none" xmlns="http://www.w3.org/2000/svg">
<path fill-rule="evenodd" clip-rule="evenodd" d="M14.2082 7.58329C14.2082 11.0351 11.41 13.8333 7.95817 13.8333C4.50639 13.8333 1.70817 11.0351 1.70817 7.58329C1.70817 4.13151 4.50639 1.33329 7.95817 1.33329C11.41 1.33329 14.2082 4.13151 14.2082 7.58329ZM12.1483 13.5515C10.9628 14.3854 9.51767 14.875 7.95817 14.875C3.93109 14.875 0.666504 11.6104 0.666504 7.58329C0.666504 3.55622 3.93109 0.291626 7.95817 0.291626C11.9852 0.291626 15.2498 3.55622 15.2498 7.58329C15.2498 9.6744 14.3696 11.5599 12.9594 12.8895L15.6183 15.5484L14.8817 16.2849L12.1483 13.5515Z" fill="#8E8E8E" fill-opacity="0.45"/>
</svg>
